:SAMPLES-PER-SECOND 30
:FULLY-SPECIFIED
:DEGREES
303
root  36.8954 40.3107 2.05096 -3.26036 51.0615 1.20082
RightUpLeg  -8.96424 -23.1835 -8.30365
RightLeg  11.5401 -13.7208 1.34578
RightFoot  0.0908309 -0.3052 3.0518
RightToes  0.00048216 0.542163 -0.142577
Spine  10.8522 1.7887 2.29493
Spine1  14.9307 3.16044 -3.23409
HEad  14.8968 -5.17052 2.49015
LeftShoulder1  12.0562 -18.2016 -48.4812
LeftArm  -21.847 -7.78551 -21.5926
LeftForeArm  1.56592 -38.8011 -8.91086
LeftHand  -0.25398 0.0180481 5.50724
RightShoulder  8.16316 14.5748 39.0431
RightArm  19.5366 33.598 45.1484
RightForeArm  -38.7431 20.2561 8.10199
RightHand  -0.351694 -0.965299 -9.09272
LeftUpLeg  -2.10719 6.54972 2.60155
LeftLeg  4.67876 18.0338 -4.66185
LeftFoot  2.11235 -0.250532 2.01924
LeftToes  1.06246e-005 4.65855e-005 -8.185e-006
304
root  36.6501 40.3281 1.74804 -3.08838 48.6598 1.32291
RightUpLeg  -9.47108 -29.58 -7.89546
RightLeg  16.033 -7.84581 -1.69769
RightFoot  -1.43148 -0.2113 2.32942
RightToes  0.00048216 0.542163 -0.142577
Spine  9.77771 1.84984 2.193
Spine1  14.9126 3.14374 -3.13183
HEad  15.4569 -5.26895 2.58957
LeftShoulder1  11.9727 -17.9862 -48.6311
LeftArm  -22.4072 -5.14648 -21.3859
LeftForeArm  1.80123 -39.9517 -9.2669
LeftHand  -0.25398 0.0180481 5.50724
RightShoulder  8.17841 14.6317 38.9876
RightArm  21.496 32.5025 46.1339
RightForeArm  -39.5104 20.7497 7.90796
RightHand  -0.388332 -0.812709 -9.7484
LeftUpLeg  -1.60253 6.58707 2.59818
LeftLeg  2.65785 20.3568 -5.23399
LeftFoot  3.09165 -0.262646 1.92682
LeftToes  1.06246e-005 4.65855e-005 -8.185e-006
305
root  36.3891 40.3249 1.47279 -2.94519 46.2843 1.50395
RightUpLeg  -8.8743 -30.1678 -9.14433
RightLeg  19.6074 -8.62867 -3.74171
RightFoot  -2.68878 -0.151448 1.75885
RightToes  0.00048216 0.542163 -0.142577
Spine  8.77738 1.88539 2.34019
Spine1  14.8793 3.16757 -3.14411
HEad  16.0099 -5.3021 2.61817
LeftShoulder1  11.9508 -17.8371 -48.8841
LeftArm  -22.7328 -2.54844 -21.051
LeftForeArm  1.67755 -40.9546 -9.60916
LeftHand  -0.25398 0.0180481 5.50724
RightShoulder  8.15266 14.6126 38.8974
RightArm  23.6787 31.1904 47.0709
RightForeArm  -40.6511 21.8022 7.46299
RightHand  -0.409002 -0.842855 -10.3383
LeftUpLeg  -1.22141 6.58001 2.63589
LeftLeg  1.01992 22.5623 -5.82445
LeftFoot  3.72007 -0.27429 1.9031
LeftToes  1.06246e-005 4.65855e-005 -8.185e-006
306
root  36.0959 40.3162 1.22037 -2.87234 43.984 1.67401
RightUpLeg  -7.6313 -29.979 -11.0154
RightLeg  22.5591 -10.9504 -5.16107
RightFoot  -3.89437 -0.081743 0.837736
RightToes  0.00048216 0.542163 -0.142577
Spine  7.92525 1.87577 2.81626
Spine1  14.807 3.25055 -3.36999
HEad  16.5674 -5.21827 2.60481
LeftShoulder1  11.9782 -17.7333 -49.238
LeftArm  -22.9402 -0.256137 -20.5555
LeftForeArm  1.41957 -41.7005 -9.88225
LeftHand  -0.25398 0.0180481 5.50724
RightShoulder  8.11699 14.5182 38.9342
RightArm  25.609 29.8873 47.8273
RightForeArm  -41.5724 22.9672 7.07829
RightHand  -0.430103 -0.910458 -11.0268
LeftUpLeg  -1.06464 6.68505 2.79366
LeftLeg  -0.131204 24.6494 -6.39659
LeftFoot  4.43522 -0.325235 2.15228
LeftToes  1.06246e-005 4.65855e-005 -8.185e-006
307
root  35.7551 40.2925 1.00174 -2.70164 41.7243 1.92479
RightUpLeg  -6.21485 -31.5475 -12.8179
RightLeg  24.7458 -12.2075 -6.28611
RightFoot  -5.24651 -0.0252818 -0.184175
RightToes  0.00048216 0.542163 -0.142577
Spine  7.04557 1.87073 3.31438
Spine1  14.7872 3.35513 -3.64288
HEad  17.1853 -5.10021 2.59387
LeftShoulder1  12.0041 -17.6246 -49.5994
LeftArm  -23.3215 1.75274 -20.1156
LeftForeArm  1.42856 -42.3881 -10.1247
LeftHand  -0.25398 0.0180481 5.50724
RightShoulder  8.089 14.4098 39.0464
RightArm  27.0098 28.729 48.3477
RightForeArm  -41.9428 23.9065 6.94233
RightHand  -0.473752 -0.739782 -11.738
LeftUpLeg  -1.25775 6.91128 3.03273
LeftLeg  -0.661053 26.7298 -6.82778
LeftFoot  5.11485 -0.375395 2.38177
LeftToes  1.06246e-005 4.65855e-005 -8.185e-006
308
root  35.3619 40.2553 0.820023 -2.45824 39.2988 2.26103
RightUpLeg  -4.46133 -34.2271 -14.6789
RightLeg  25.8904 -13.1204 -7.05565
RightFoot  -6.60231 -0.0225347 -0.513713
RightToes  0.00048216 0.542163 -0.142577
Spine  6.09883 1.94046 3.73431
Spine1  14.8481 3.51718 -3.87291
HEad  17.9294 -5.01264 2.5944
LeftShoulder1  11.9796 -17.4895 -49.8173
LeftArm  -23.963 3.72252 -19.8878
LeftForeArm  1.88989 -43.413 -10.4687
LeftHand  -0.25398 0.0180481 5.50724
RightShoulder  8.06579 14.316 39.1497
RightArm  28.0694 27.7175 48.6561
RightForeArm  -42.0358 24.7179 7.01999
RightHand  -0.518768 -0.468539 -12.1915
LeftUpLeg  -1.54694 7.15605 3.32063
LeftLeg  -0.984075 28.8335 -7.14267
LeftFoot  5.55216 -0.398015 2.45281
LeftToes  1.06246e-005 4.65855e-005 -8.185e-006
309
root  34.9243 40.2283 0.669618 -2.32268 36.5599 2.53001
RightUpLeg  -2.31131 -38.1249 -16.6111
RightLeg  26.0376 -13.9377 -7.5156
RightFoot  -8.01431 -0.0298999 -0.891413
RightToes  0.00048216 0.542163 -0.142577
Spine  5.17714 2.0708 4.35983
Spine1  14.9037 3.78236 -4.17455
HEad  18.8133 -4.97257 2.57077
LeftShoulder1  11.8933 -17.318 -49.8664
LeftArm  -24.6318 5.76817 -19.7631
LeftForeArm  2.60503 -44.908 -10.9911
LeftHand  -0.25398 0.0180481 5.50724
RightShoulder  8.04653 14.2312 39.2534
RightArm  29.0701 26.8254 48.8935
RightForeArm  -42.2326 25.5258 7.22642
RightHand  -0.533417 -0.436249 -12.4583
LeftUpLeg  -1.55818 7.41005 3.78148
LeftLeg  -1.74706 30.9989 -7.61316
LeftFoot  6.20153 -0.426562 2.51924
LeftToes  1.06246e-005 4.65855e-005 -8.185e-006
310
root  34.4382 40.212 0.551908 -2.27724 33.4893 2.694
RightUpLeg  0.0324641 -42.9171 -18.4904
RightLeg  25.7606 -15.4001 -8.15926
RightFoot  -9.6207 -0.0295739 -2.45864
RightToes  0.00048216 0.542163 -0.142577
Spine  4.25011 2.25864 5.24699
Spine1  14.914 4.1344 -4.54245
HEad  19.7637 -5.00704 2.40393
LeftShoulder1  11.7869 -17.1187 -49.8986
LeftArm  -25.043 7.79889 -19.5252
LeftForeArm  3.20603 -46.5436 -11.6104
LeftHand  -0.25398 0.0180481 5.50724
RightShoulder  8.01463 14.1588 39.259
RightArm  30.2205 26.0345 49.3259
RightForeArm  -42.6941 26.203 7.40359
RightHand  -0.535486 -0.590262 -12.8843
LeftUpLeg  -1.30185 7.83191 4.5458
LeftLeg  -2.92858 33.4542 -8.40619
LeftFoot  7.37734 -0.462206 2.5324
LeftToes  1.06246e-005 4.65855e-005 -8.185e-006
311
root  33.8767 40.1812 0.471833 -2.12485 30.0096 2.98071
RightUpLeg  2.40637 -47.1101 -20.1415
RightLeg  25.1331 -17.9061 -9.15184
RightFoot  -10.7615 -0.051882 -3.62175
RightToes  0.00048216 0.542163 -0.142577
Spine  3.24977 2.58629 5.915
Spine1  14.9176 4.54482 -4.73006
HEad  20.662 -5.03604 1.98038
LeftShoulder1  11.7147 -16.9391 -50.0289
LeftArm  -25.0775 9.81501 -19.0197
LeftForeArm  3.43103 -47.9643 -12.2062
LeftHand  -0.25398 0.0180481 5.50724
RightShoulder  7.94674 14.1004 39.035
RightArm  31.6161 25.4626 50.1797
RightForeArm  -43.183 26.4827 7.48534
RightHand  -0.5477 -0.666378 -13.3811
LeftUpLeg  -0.955746 8.38723 5.44812
LeftLeg  -4.21074 36.3547 -9.41083
LeftFoot  8.59634 -0.475264 2.40529
LeftToes  1.06246e-005 4.65855e-005 -8.185e-006
312
root  33.2083 40.1204 0.419736 -1.91606 26.0022 3.49863
RightUpLeg  4.65172 -49.4257 -21.3819
RightLeg  23.6134 -19.6793 -9.32979
RightFoot  -10.5822 -0.0644945 -1.66528
RightToes  0.00048216 0.542163 -0.142577
Spine  2.39095 3.05125 6.15027
Spine1  14.8947 5.02665 -4.75331
HEad  21.4078 -4.83918 1.36669
LeftShoulder1  11.6762 -16.8049 -50.1935
LeftArm  -24.8088 11.9184 -18.1667
LeftForeArm  3.2061 -49.145 -12.7619
LeftHand  -0.25398 0.0180481 5.50724
RightShoulder  7.86462 14.025 38.7732
RightArm  33.7938 25.4226 51.5591
RightForeArm  -43.8508 26.1221 7.40809
RightHand  -0.545184 -0.732733 -13.4986
LeftUpLeg  -0.537491 8.80665 6.27763
LeftLeg  -5.4601 39.5188 -10.2956
LeftFoot  9.5804 -0.4876 2.32258
LeftToes  1.06246e-005 4.65855e-005 -8.185e-006
